#!OML:ASF E:\Steps\Project 1\Capture day 1\Session 2\Subject.ASF
:FULLY-SPECIFIED
:DEGREES
470
root 9.29989 16.3206 13.6154 -154.334 0.210052 179.452
lowerback -29.6141 -2.4067 -4.69353
upperback -3.71896 -0.495079 -0.267262
thorax 12.2612 0.01481 2.3167
lowerneck -0.512816 -5.22579 -0.683942
upperneck -8.20666 -6.36597 4.90152
head -2.31475 -3.13774 1.78247
rclavicle 5.01931e-015 3.57812e-015
rhumerus -32.9266 -24.9839 -77.973
rradius 22.8216
rwrist 13.1921
rhand -9.87704 -56.2272
rfingers 7.12502
rthumb -163.898 -265.578
lclavicle 5.01931e-015 3.57812e-015
lhumerus -29.9958 11.0507 79.6683
lradius 12.8427
lwrist -17.0003
lhand -21.026 -12.6191
lfingers 7.12502
lthumb 5.34924 17.2934
rfemur -21.747 7.17625 17.695
rtibia 5.42599
rfoot -18.7448 -6.48033
rtoes -13.8916
lfemur -20.7694 -9.88764 -18.0675
ltibia 5.10679
lfoot -8.05283 8.12553
ltoes -42.5231
471
root 9.30044 16.3194 13.619 -154.447 0.184325 179.442
lowerback -29.5033 -2.41078 -4.738
upperback -3.72094 -0.49531 -0.278679
thorax 12.2025 0.012557 2.32879
lowerneck -0.433784 -5.18711 -0.802244
upperneck -8.02495 -6.32622 5.02775
head -2.26275 -3.12207 1.84033
rclavicle -5.1684e-015 1.11319e-014
rhumerus -32.6403 -23.7711 -78.708
rradius 23.4032
rwrist 12.1032
rhand -9.82817 -57.199
rfingers 7.12502
rthumb -163.851 -266.546
lclavicle -5.1684e-015 1.11319e-014
lhumerus -29.7826 10.651 79.9817
lradius 13.0844
lwrist -16.5797
lhand -21.4529 -13.1764
lfingers 7.12502
lthumb 4.93704 16.7461
rfemur -21.6212 7.24279 17.6848
rtibia 5.42381
rfoot -18.7081 -6.53426
rtoes -13.587
lfemur -20.6593 -9.86344 -18.0954
ltibia 5.09594
lfoot -7.97463 8.07219
ltoes -42.6587
472
root 9.30124 16.3194 13.6248 -154.552 0.144928 179.42
lowerback -29.3818 -2.41918 -4.79343
upperback -3.75299 -0.491678 -0.298246
thorax 12.1029 0.0160078 2.33984
lowerneck -0.297524 -5.17055 -0.897667
upperneck -7.91568 -6.31081 5.15104
head -2.24513 -3.11935 1.89799
rclavicle 8.44835e-015 -5.96354e-015
rhumerus -32.4489 -22.9117 -79.223
rradius 23.8191
rwrist 11.4084
rhand -9.98592 -56.4333
rfingers 7.12502
rthumb -164.003 -265.793
lclavicle 8.44835e-015 -5.96354e-015
lhumerus -29.6701 9.52732 80.6054
lradius 13.5784
lwrist -15.4928
lhand -21.5611 -13.4834
lfingers 7.12502
lthumb 4.83261 16.4415
rfemur -21.5238 7.16292 17.7043
rtibia 5.46639
rfoot -18.6548 -6.52612
rtoes -13.6526
lfemur -20.5925 -9.82517 -18.1338
ltibia 5.14544
lfoot -7.97202 7.9949
ltoes -42.6815
473
root 9.30114 16.3199 13.6326 -154.585 0.159184 179.404
lowerback -29.2617 -2.43146 -4.86132
upperback -3.84689 -0.480544 -0.303166
thorax 11.9319 0.0299818 2.37878
lowerneck -0.144273 -5.24763 -0.885276
upperneck -8.04617 -6.39169 5.31836
head -2.30857 -3.16474 1.96047
rclavicle 5.889e-015 -2.78299e-014
rhumerus -32.3794 -22.4178 -79.4892
rradius 24.1466
rwrist 11.1792
rhand -10.057 -55.3378
rfingers 7.12502
rthumb -164.071 -264.703
lclavicle 5.889e-015 -2.78299e-014
lhumerus -29.6201 8.03878 81.3558
lradius 14.1146
lwrist -14.1459
lhand -21.5518 -13.345
lfingers 7.12502
lthumb 4.84154 16.5797
rfemur -21.5581 7.02882 17.7179
rtibia 5.55723
rfoot -18.7309 -6.44213
rtoes -14.0885
lfemur -20.623 -9.76103 -18.1737
ltibia 5.21558
lfoot -8.03384 7.88428
ltoes -42.3186
474
root 9.30088 16.3208 13.6393 -154.606 0.161348 179.384
lowerback -29.1855 -2.45751 -4.92862
upperback -3.87897 -0.49702 -0.290837
thorax 11.8576 0.0228432 2.42566
lowerneck -0.279291 -5.4934 -0.699979
upperneck -8.41158 -6.65133 5.58276
head -2.39426 -3.29336 2.0234
rclavicle -2.26118e-015 -2.10712e-014
rhumerus -32.0897 -22.0268 -79.7834
rradius 24.3855
rwrist 11.017
rhand -9.94017 -55.2115
rfingers 7.12502
rthumb -163.959 -264.567
lclavicle -2.26118e-015 -2.10712e-014
lhumerus -29.5249 6.97846 81.9265
lradius 14.5753
lwrist -13.2714
lhand -22.121 -12.4734
lfingers 7.12502
lthumb 4.29191 17.4631
rfemur -21.5885 7.01515 17.6823
rtibia 5.59328
rfoot -18.7834 -6.42004
rtoes -14.1872
lfemur -20.654 -9.7468 -18.2086
ltibia 5.26319
lfoot -8.05603 7.81976
ltoes -41.9962
475
root 9.3 16.3222 13.644 -154.679 0.0482805 179.362
lowerback -29.1758 -1.2397 -5.64457
upperback -3.79561 -0.863608 -0.373162
thorax 11.9072 -1.0981 2.41249
lowerneck -0.410594 -5.33178 -0.873798
upperneck -8.17788 -6.4699 5.46018
head -2.29753 -3.19626 1.99895
rclavicle -6.21202e-016 1.19271e-015
rhumerus -31.5537 -21.5151 -80.2463
rradius 24.529
rwrist 10.6531
rhand -9.79618 -55.5267
rfingers 7.12502
rthumb -163.82 -264.871
lclavicle -6.21202e-016 1.19271e-015
lhumerus -29.3593 6.04033 82.4446
lradius 15.1238
lwrist -12.5055
lhand -22.4037 -12.9415
lfingers 7.12502
lthumb 4.01893 17.0004
rfemur -21.4913 7.05896 17.6579
rtibia 5.5451
rfoot -18.6979 -6.53718
rtoes -14.0575
lfemur -20.6425 -9.80844 -18.2195
ltibia 5.35206
lfoot -8.07966 7.79963
ltoes -41.738
476
root 9.29767 16.3235 13.6504 -154.691 -0.0371839 179.376
lowerback -29.2426 -1.24058 -5.59965
upperback -3.75115 -0.861714 -0.411837
thorax 11.9929 -1.09425 2.34153
lowerneck -0.327099 -5.54377 -0.654489
upperneck -8.77368 -6.66396 5.72872
head -2.50269 -3.29552 2.07265
rclavicle 9.93923e-017 4.77083e-015
rhumerus -31.1486 -21.0594 -80.6655
rradius 24.6936
rwrist 10.2804
rhand -9.84275 -55.4491
rfingers 7.12502
rthumb -163.865 -264.797
lclavicle 9.93923e-017 4.77083e-015
lhumerus -29.1411 5.20481 82.8438
lradius 15.658
lwrist -11.7528
lhand -22.4044 -12.9366
lfingers 7.12502
lthumb 4.0183 17.0052
rfemur -21.5167 7.10786 17.6693
rtibia 5.59131
rfoot -18.6437 -6.66378
rtoes -13.848
lfemur -20.7226 -9.86699 -18.1828
ltibia 5.47297
lfoot -8.12061 7.82766
ltoes -41.7357
477
root 9.29692 16.3243 13.6606 -154.642 -0.0551709 179.415
lowerback -29.2394 -1.22555 -5.56702
upperback -3.77055 -0.85463 -0.436777
thorax 11.9673 -1.08979 2.29678
lowerneck -0.280366 -5.73718 -0.401611
upperneck -9.3913 -6.8217 5.99493
head -2.71304 -3.37648 2.14041
rclavicle -3.62782e-015 3.57812e-015
rhumerus -30.9302 -20.5636 -81.0415
rradius 25.038
rwrist 9.78642
rhand -9.87303 -55.0457
rfingers 7.12502
rthumb -163.894 -264.396
lclavicle -3.62782e-015 3.57812e-015
lhumerus -28.8886 4.55565 83.1551
lradius 16.1116
lwrist -11.0093
lhand -22.0796 -13.113
lfingers 7.12502
lthumb 4.33191 16.8227
rfemur -21.6659 7.21333 17.6845
rtibia 5.70392
rfoot -18.7198 -6.73803
rtoes -13.3409
lfemur -20.8875 -9.83316 -18.1276
ltibia 5.60122
lfoot -8.12728 7.80625
ltoes -42.235
478
root 9.2979 16.3243 13.6695 -154.597 -0.0546746 179.495
lowerback -29.2676 -1.21299 -5.51042
upperback -3.77296 -0.856702 -0.429701
thorax 11.9789 -1.08908 2.27096
lowerneck -0.150464 -5.52717 -0.66207
upperneck -8.91073 -6.6045 6.00363
head -2.57418 -3.27286 2.17422
rclavicle -7.1811e-015 1.35174e-014
rhumerus -30.7089 -19.9036 -81.4593
rradius 25.4997
rwrist 9.26787
rhand -9.83355 -55.4721
rfingers 7.12502
rthumb -163.856 -264.82
lclavicle -7.1811e-015 1.35174e-014
lhumerus -28.6929 3.78281 83.5451
lradius 16.6058
lwrist -10.1964
lhand -21.9769 -13.2767
lfingers 7.12502
lthumb 4.43108 16.6569
rfemur -21.7795 7.23706 17.7714
rtibia 5.76009
rfoot -18.7644 -6.68852
rtoes -13.177
lfemur -21.0413 -9.72565 -18.0356
ltibia 5.72841
lfoot -8.17533 7.73041
ltoes -42.2478
